<svg xmlns="http://www.w3.org/2000/svg" viewBox="0 0 1600 900">
  <defs>
    <linearGradient id="wall" x1="0" x2="0" y1="0" y2="1">
      <stop offset="0" stop-color="#5cb7e1"/>
      <stop offset="1" stop-color="#2d79a9"/>
    </linearGradient>
    <radialGradient id="light" cx=".18" cy=".1" r=".42">
      <stop offset="0" stop-color="#fff4a6" stop-opacity=".55"/>
      <stop offset=".65" stop-color="#fff4a6" stop-opacity=".08"/>
      <stop offset="1" stop-color="#fff4a6" stop-opacity="0"/>
    </radialGradient>
  </defs>
  <rect width="1600" height="900" fill="url(#wall)"/>
  <rect width="1600" height="900" fill="url(#light)"/>
  <g opacity=".22" stroke="#184b6e" stroke-width="3">
    <path d="M0 160H1600M0 335H1600M0 640H1600M160 0V900M380 0V900M650 0V900M965 0V900M1215 0V900M1450 0V900"/>
  </g>
  <g opacity=".28" fill="#184b6e">
    <circle cx="160" cy="160" r="7"/><circle cx="380" cy="160" r="7"/><circle cx="650" cy="160" r="7"/><circle cx="965" cy="160" r="7"/><circle cx="1215" cy="160" r="7"/>
    <circle cx="160" cy="335" r="7"/><circle cx="380" cy="335" r="7"/><circle cx="650" cy="335" r="7"/><circle cx="965" cy="335" r="7"/><circle cx="1215" cy="335" r="7"/>
    <circle cx="160" cy="640" r="7"/><circle cx="380" cy="640" r="7"/><circle cx="650" cy="640" r="7"/><circle cx="965" cy="640" r="7"/><circle cx="1215" cy="640" r="7"/>
  </g>
  <rect y="700" width="1600" height="200" fill="#3f8fb9"/>
  <g opacity=".22" stroke="#184b6e" stroke-width="3">
    <path d="M0 745H1600M0 810H1600M0 875H1600M80 700L20 900M250 700L190 900M420 700L360 900M590 700L530 900M760 700L700 900M930 700L870 900M1100 700L1040 900M1270 700L1210 900M1440 700L1380 900"/>
  </g>
  <g>
    <path d="M62 0v120h215V0" fill="none" stroke="#244763" stroke-width="16"/>
    <path d="M250 0v68" stroke="#244763" stroke-width="16"/>
    <path d="M245 68c0 35-110 35-110 0z" fill="#173f5e"/>
    <ellipse cx="190" cy="68" rx="58" ry="12" fill="#fff090" opacity=".85"/>
  </g>
  <g transform="translate(90 190)">
    <rect width="170" height="160" rx="8" fill="#1e73a5" stroke="#f0b22b" stroke-width="6"/>
    <g stroke="#d9f5ff" stroke-width="4" fill="none" opacity=".8">
      <rect x="48" y="40" width="75" height="68" rx="12"/>
      <circle cx="70" cy="68" r="8"/><circle cx="102" cy="68" r="8"/>
      <path d="M72 96h30M85 40V20M42 82H25M128 82h18"/>
    </g>
  </g>
  <g transform="translate(20 520)">
    <rect x="0" y="0" width="240" height="34" rx="7" fill="#b76b19"/>
    <rect x="20" y="34" width="200" height="120" fill="#8e531a"/>
    <rect x="34" y="68" width="70" height="38" fill="#d96416"/>
    <rect x="112" y="68" width="70" height="38" fill="#098ca8"/>
    <rect x="18" y="122" width="170" height="54" fill="#2c8f33"/>
  </g>
  <g transform="translate(1360 110)">
    <rect x="0" y="0" width="180" height="310" rx="88" fill="#1f78ab" stroke="#155173" stroke-width="12"/>
    <path d="M20 78h140v210H20z" fill="#50d2ff"/>
    <path d="M20 230c50-55 90-8 140-62v120H20z" fill="#79d34b"/>
    <ellipse cx="85" cy="118" rx="46" ry="15" fill="#fff" opacity=".85"/>
    <ellipse cx="135" cy="178" rx="40" ry="13" fill="#fff" opacity=".85"/>
  </g>
  <g transform="translate(1250 520)">
    <rect x="0" y="0" width="380" height="50" rx="8" fill="#bb7320"/>
    <rect x="120" y="-42" width="190" height="82" rx="14" fill="#7f45c9"/>
    <rect x="136" y="-20" width="108" height="30" rx="6" fill="#f8edce"/>
    <circle cx="158" cy="-5" r="12" fill="#ef3434"/>
    <circle cx="193" cy="-5" r="12" fill="#22aa4c"/>
    <circle cx="228" cy="-5" r="12" fill="#ffc12e"/>
    <path d="M280-42v-56" stroke="#344b62" stroke-width="10"/>
    <circle cx="280" cy="-102" r="16" fill="#ef4b12"/>
  </g>
  <text x="1240" y="520" font-family="Arial" font-size="110" fill="#183d5b" opacity=".35">🔧</text>
</svg>