<svg xmlns="http://www.w3.org/2000/svg" viewBox="-120 -120 240 240">
  <defs><radialGradient id="g" cx=".35" cy=".25"><stop stop-color="#fff" stop-opacity=".42"/><stop offset=".45" stop-color="#78cc24"/><stop offset="1" stop-color="#3b8614"/></radialGradient></defs>
  <path d="M 112.0 0.0 L 90.2 17.9 L 103.5 42.9 L 76.5 51.1 L 79.2 79.2 L 51.1 76.5 L 42.9 103.5 L 17.9 90.2 L 0.0 112.0 L -17.9 90.2 L -42.9 103.5 L -51.1 76.5 L -79.2 79.2 L -76.5 51.1 L -103.5 42.9 L -90.2 17.9 L -112.0 0.0 L -90.2 -17.9 L -103.5 -42.9 L -76.5 -51.1 L -79.2 -79.2 L -51.1 -76.5 L -42.9 -103.5 L -17.9 -90.2 L -0.0 -112.0 L 17.9 -90.2 L 42.9 -103.5 L 51.1 -76.5 L 79.2 -79.2 L 76.5 -51.1 L 103.5 -42.9 L 90.2 -17.9 Z" fill="url(#g)" stroke="#3b8614" stroke-width="7" stroke-linejoin="round"/>
  <circle r="54" fill="#78cc24" stroke="#b8ff70" stroke-width="6"/>
  <circle r="22" fill="#313a45" stroke="#111827" stroke-width="6"/>
  <path d="M 44 -10 A 48 48 0 1 0 -22 42" fill="none" stroke="#fff" stroke-width="18" stroke-linecap="round"/><path d="M -23 42 L -54 39 L -35 14 Z" fill="#fff"/>
</svg>