<svg xmlns="http://www.w3.org/2000/svg" viewBox="-120 -120 240 240">
  <defs><radialGradient id="g" cx=".35" cy=".25"><stop stop-color="#fff" stop-opacity=".42"/><stop offset=".45" stop-color="#9b45e8"/><stop offset="1" stop-color="#5d1ca6"/></radialGradient></defs>
  <path d="M 112.0 0.0 L 90.2 17.9 L 103.5 42.9 L 76.5 51.1 L 79.2 79.2 L 51.1 76.5 L 42.9 103.5 L 17.9 90.2 L 0.0 112.0 L -17.9 90.2 L -42.9 103.5 L -51.1 76.5 L -79.2 79.2 L -76.5 51.1 L -103.5 42.9 L -90.2 17.9 L -112.0 0.0 L -90.2 -17.9 L -103.5 -42.9 L -76.5 -51.1 L -79.2 -79.2 L -51.1 -76.5 L -42.9 -103.5 L -17.9 -90.2 L -0.0 -112.0 L 17.9 -90.2 L 42.9 -103.5 L 51.1 -76.5 L 79.2 -79.2 L 76.5 -51.1 L 103.5 -42.9 L 90.2 -17.9 Z" fill="url(#g)" stroke="#5d1ca6" stroke-width="7" stroke-linejoin="round"/>
  <circle r="54" fill="#9b45e8" stroke="#d9a8ff" stroke-width="6"/>
  <circle r="22" fill="#313a45" stroke="#111827" stroke-width="6"/>
  <text x="0" y="28" text-anchor="middle" font-size="100" font-family="Arial,sans-serif" font-weight="900" fill="#fff">?</text>
</svg>