<svg xmlns="http://www.w3.org/2000/svg" viewBox="0 0 340 380">
  <defs>
    <linearGradient id="white" x1="0" y1="0" x2="0" y2="1"><stop stop-color="#fff"/><stop offset="1" stop-color="#e8e0d2"/></linearGradient>
    <linearGradient id="blue" x1="0" y1="0" x2="0" y2="1"><stop stop-color="#188eef"/><stop offset="1" stop-color="#0057b7"/></linearGradient>
  </defs>
  <g filter="drop-shadow(0 10px 12px rgba(0,0,0,.22))">
    <rect x="72" y="24" width="196" height="125" rx="46" fill="url(#white)"/>
    <rect x="96" y="49" width="148" height="78" rx="28" fill="#0f1d2e"/>
    <circle cx="132" cy="84" r="14" fill="#fff"/><circle cx="206" cy="84" r="14" fill="#fff"/>
    <path d="M146 105q24 22 48 0" stroke="#fff" stroke-width="9" fill="none" stroke-linecap="round"/>
    <circle cx="67" cy="86" r="25" fill="url(#blue)"/><circle cx="273" cy="86" r="25" fill="url(#blue)"/>
    <rect x="104" y="158" width="130" height="112" rx="33" fill="url(#white)"/>
    <rect x="129" y="184" width="80" height="55" rx="12" fill="url(#blue)"/>
    <path d="M168 195l11 10 15-2 2 16 12 11-13 10-2 16-15-2-11 11-11-11-16 2-2-16-13-10 13-11 2-16 16 2z" fill="#eaf4ff"/>
    <path d="M104 185C62 190 41 220 38 263" stroke="#fff7ef" stroke-width="30" fill="none" stroke-linecap="round"/>
    <path d="M233 184c45-2 78-34 78-78" stroke="#fff7ef" stroke-width="30" fill="none" stroke-linecap="round"/>
    <path d="M303 95c25 2 31 25 10 41" stroke="#fff7ef" stroke-width="26" fill="none" stroke-linecap="round"/>
    <path d="M284 100v-38" stroke="#fff7ef" stroke-width="24" stroke-linecap="round"/>
    <path d="M128 270v48M210 270v48" stroke="#263241" stroke-width="26" stroke-linecap="round"/>
    <path d="M112 318h54v38H92q0-38 20-38zM194 318h54q20 0 20 38h-74z" fill="url(#white)"/>
    <path d="M92 352h76M194 352h76" stroke="#0057b7" stroke-width="16" stroke-linecap="round"/>
  </g>
</svg>